<mxfile host="65bd71144e">
    <diagram id="6Gf9rJFWPrzmGrm548vG" name="Page-1">
        <mxGraphModel dx="2637" dy="1675" grid="0" gridSize="10" guides="1" tooltips="1" connect="1" arrows="1" fold="1" page="1" pageScale="1" pageWidth="827" pageHeight="1169" background="#ffffff" math="0" shadow="0">
            <root>
                <mxCell id="0"/>
                <mxCell id="1" parent="0"/>
                <mxCell id="39" style="edgeStyle=none;html=1;fontColor=#000000;strokeColor=#000000;rounded=0;" edge="1" parent="1" source="2">
                    <mxGeometry relative="1" as="geometry">
                        <mxPoint x="-332" y="180" as="targetPoint"/>
                    </mxGeometry>
                </mxCell>
                <mxCell id="2" value="Usuario" style="rounded=0;whiteSpace=wrap;html=1;" parent="1" vertex="1">
                    <mxGeometry x="-397" y="280" width="130" height="70" as="geometry"/>
                </mxCell>
                <mxCell id="62" style="edgeStyle=none;html=1;exitX=0.5;exitY=0;exitDx=0;exitDy=0;fontColor=#FFFFFF;strokeColor=#000000;rounded=0;" edge="1" parent="1" source="3">
                    <mxGeometry relative="1" as="geometry">
                        <mxPoint x="470" y="360" as="targetPoint"/>
                    </mxGeometry>
                </mxCell>
                <mxCell id="3" value="Publicacion" style="whiteSpace=wrap;html=1;aspect=fixed;rounded=0;" parent="1" vertex="1">
                    <mxGeometry x="433" y="477.57" width="80" height="80" as="geometry"/>
                </mxCell>
                <mxCell id="81" value="" style="edgeStyle=none;html=1;fontColor=#FFFFFF;strokeColor=#000000;rounded=0;" edge="1" parent="1" source="5">
                    <mxGeometry relative="1" as="geometry">
                        <mxPoint x="-570" y="1050" as="targetPoint"/>
                    </mxGeometry>
                </mxCell>
                <mxCell id="5" value="Comentario" style="whiteSpace=wrap;html=1;aspect=fixed;rounded=0;" parent="1" vertex="1">
                    <mxGeometry x="-610" y="880" width="80" height="80" as="geometry"/>
                </mxCell>
                <mxCell id="134" value="" style="edgeStyle=none;html=1;fontColor=#FFFFFF;strokeColor=#000000;rounded=0;" edge="1" parent="1" source="6">
                    <mxGeometry relative="1" as="geometry">
                        <mxPoint x="895" y="920" as="targetPoint"/>
                    </mxGeometry>
                </mxCell>
                <mxCell id="6" value="Mensaje" style="whiteSpace=wrap;html=1;aspect=fixed;rounded=0;" parent="1" vertex="1">
                    <mxGeometry x="720" y="875" width="90" height="90" as="geometry"/>
                </mxCell>
                <mxCell id="115" value="" style="edgeStyle=none;html=1;fontColor=#FFFFFF;strokeColor=#000000;rounded=0;" edge="1" parent="1" source="7">
                    <mxGeometry relative="1" as="geometry">
                        <mxPoint x="393" y="1050" as="targetPoint"/>
                    </mxGeometry>
                </mxCell>
                <mxCell id="7" value="Like" style="whiteSpace=wrap;html=1;aspect=fixed;rounded=0;" parent="1" vertex="1">
                    <mxGeometry x="353" y="870" width="80" height="80" as="geometry"/>
                </mxCell>
                <mxCell id="14" value="" style="endArrow=classic;html=1;exitX=0.462;exitY=1;exitDx=0;exitDy=0;exitPerimeter=0;entryX=0.625;entryY=0;entryDx=0;entryDy=0;entryPerimeter=0;fillColor=#60a917;strokeColor=#020500;rounded=0;" parent="1" source="2" target="5" edge="1">
                    <mxGeometry width="50" height="50" relative="1" as="geometry">
                        <mxPoint x="-457" y="480" as="sourcePoint"/>
                        <mxPoint x="-507" y="540" as="targetPoint"/>
                    </mxGeometry>
                </mxCell>
                <mxCell id="16" value="N:1" style="text;html=1;strokeColor=none;fillColor=none;align=center;verticalAlign=middle;whiteSpace=wrap;rounded=0;rotation=-70;fontColor=#000000;" parent="1" vertex="1">
                    <mxGeometry x="-427" y="610" width="60" height="30" as="geometry"/>
                </mxCell>
                <mxCell id="22" value="" style="endArrow=classic;html=1;entryX=0.625;entryY=0;entryDx=0;entryDy=0;entryPerimeter=0;strokeColor=#030303;rounded=0;" parent="1" target="7" edge="1">
                    <mxGeometry width="50" height="50" relative="1" as="geometry">
                        <mxPoint x="-317" y="350" as="sourcePoint"/>
                        <mxPoint x="-337" y="470" as="targetPoint"/>
                        <Array as="points">
                            <mxPoint x="-327" y="410"/>
                        </Array>
                    </mxGeometry>
                </mxCell>
                <mxCell id="24" value="1:N" style="text;html=1;strokeColor=none;fillColor=none;align=center;verticalAlign=middle;whiteSpace=wrap;rounded=0;rotation=45;fontColor=#000000;" parent="1" vertex="1">
                    <mxGeometry x="-176.99999999999997" y="550" width="60" height="17.41" as="geometry"/>
                </mxCell>
                <mxCell id="29" value="" style="endArrow=classic;html=1;entryX=0.5;entryY=0;entryDx=0;entryDy=0;entryPerimeter=0;strokeColor=#000000;rounded=0;" parent="1" target="6" edge="1">
                    <mxGeometry width="50" height="50" relative="1" as="geometry">
                        <mxPoint x="-297" y="350" as="sourcePoint"/>
                        <mxPoint x="-267" y="460" as="targetPoint"/>
                    </mxGeometry>
                </mxCell>
                <mxCell id="31" value="1:N" style="text;html=1;strokeColor=none;fillColor=none;align=center;verticalAlign=middle;whiteSpace=wrap;rounded=0;rotation=15;fontColor=#000000;" parent="1" vertex="1">
                    <mxGeometry x="-57" y="490" width="60" height="24" as="geometry"/>
                </mxCell>
                <mxCell id="33" value="" style="endArrow=classic;html=1;entryX=0.625;entryY=0;entryDx=0;entryDy=0;entryPerimeter=0;strokeColor=#000000;rounded=0;" parent="1" target="3" edge="1">
                    <mxGeometry width="50" height="50" relative="1" as="geometry">
                        <mxPoint x="-267" y="320" as="sourcePoint"/>
                        <mxPoint x="-257" y="420" as="targetPoint"/>
                    </mxGeometry>
                </mxCell>
                <mxCell id="34" value="1:N" style="text;html=1;strokeColor=none;fillColor=none;align=center;verticalAlign=middle;whiteSpace=wrap;rounded=0;rotation=20;fontColor=#000000;" parent="1" vertex="1">
                    <mxGeometry x="63" y="330" width="60" height="60" as="geometry"/>
                </mxCell>
                <mxCell id="40" value="" style="endArrow=none;html=1;fontColor=#000000;strokeColor=#000000;rounded=0;" edge="1" parent="1">
                    <mxGeometry width="50" height="50" relative="1" as="geometry">
                        <mxPoint x="-590" y="180" as="sourcePoint"/>
                        <mxPoint x="-330" y="180" as="targetPoint"/>
                    </mxGeometry>
                </mxCell>
                <mxCell id="41" value="" style="endArrow=none;html=1;fontColor=#000000;strokeColor=#000000;rounded=0;" edge="1" parent="1">
                    <mxGeometry width="50" height="50" relative="1" as="geometry">
                        <mxPoint x="-590" y="180" as="sourcePoint"/>
                        <mxPoint x="-590" y="110" as="targetPoint"/>
                    </mxGeometry>
                </mxCell>
                <mxCell id="42" value="&lt;font color=&quot;#ffffff&quot;&gt;ID&lt;/font&gt;" style="rounded=0;whiteSpace=wrap;html=1;fontColor=#000000;" vertex="1" parent="1">
                    <mxGeometry x="-650" y="50" width="120" height="60" as="geometry"/>
                </mxCell>
                <mxCell id="43" value="" style="endArrow=none;html=1;fontColor=#000000;strokeColor=#000000;rounded=0;" edge="1" parent="1">
                    <mxGeometry width="50" height="50" relative="1" as="geometry">
                        <mxPoint x="-440" y="180" as="sourcePoint"/>
                        <mxPoint x="-440" y="110" as="targetPoint"/>
                    </mxGeometry>
                </mxCell>
                <mxCell id="44" value="&lt;font color=&quot;#ffffff&quot;&gt;NOMBRES&lt;/font&gt;" style="rounded=0;whiteSpace=wrap;html=1;fontColor=#000000;" vertex="1" parent="1">
                    <mxGeometry x="-500" y="50" width="120" height="60" as="geometry"/>
                </mxCell>
                <mxCell id="45" value="" style="endArrow=none;html=1;fontColor=#000000;strokeColor=#000000;rounded=0;" edge="1" parent="1">
                    <mxGeometry width="50" height="50" relative="1" as="geometry">
                        <mxPoint x="-280" y="180" as="sourcePoint"/>
                        <mxPoint x="-280" y="110" as="targetPoint"/>
                    </mxGeometry>
                </mxCell>
                <mxCell id="46" value="&lt;font color=&quot;#ffffff&quot;&gt;APELLIDOS&lt;/font&gt;" style="rounded=0;whiteSpace=wrap;html=1;fontColor=#000000;" vertex="1" parent="1">
                    <mxGeometry x="-340" y="50" width="120" height="60" as="geometry"/>
                </mxCell>
                <mxCell id="47" value="" style="endArrow=none;html=1;fontColor=#000000;strokeColor=#000000;rounded=0;" edge="1" parent="1">
                    <mxGeometry width="50" height="50" relative="1" as="geometry">
                        <mxPoint x="-330" y="180" as="sourcePoint"/>
                        <mxPoint x="-70" y="180" as="targetPoint"/>
                    </mxGeometry>
                </mxCell>
                <mxCell id="48" value="" style="endArrow=none;html=1;fontColor=#000000;strokeColor=#000000;rounded=0;" edge="1" parent="1">
                    <mxGeometry width="50" height="50" relative="1" as="geometry">
                        <mxPoint x="-70" y="180" as="sourcePoint"/>
                        <mxPoint x="190" y="180" as="targetPoint"/>
                    </mxGeometry>
                </mxCell>
                <mxCell id="51" value="" style="endArrow=none;html=1;fontColor=#000000;strokeColor=#000000;rounded=0;" edge="1" parent="1">
                    <mxGeometry width="50" height="50" relative="1" as="geometry">
                        <mxPoint x="-120" y="180" as="sourcePoint"/>
                        <mxPoint x="-120" y="110" as="targetPoint"/>
                    </mxGeometry>
                </mxCell>
                <mxCell id="52" value="&lt;font color=&quot;#ffffff&quot;&gt;NOMBRE DE USUARIO&lt;/font&gt;" style="rounded=0;whiteSpace=wrap;html=1;fontColor=#000000;" vertex="1" parent="1">
                    <mxGeometry x="-180" y="50" width="120" height="60" as="geometry"/>
                </mxCell>
                <mxCell id="53" value="" style="endArrow=none;html=1;fontColor=#000000;strokeColor=#000000;rounded=0;" edge="1" parent="1">
                    <mxGeometry width="50" height="50" relative="1" as="geometry">
                        <mxPoint x="40" y="180" as="sourcePoint"/>
                        <mxPoint x="40" y="110" as="targetPoint"/>
                    </mxGeometry>
                </mxCell>
                <mxCell id="54" value="&lt;font color=&quot;#ffffff&quot;&gt;CANTIDAD DE AMIGOS&lt;/font&gt;" style="rounded=0;whiteSpace=wrap;html=1;fontColor=#000000;" vertex="1" parent="1">
                    <mxGeometry x="-20" y="50" width="120" height="60" as="geometry"/>
                </mxCell>
                <mxCell id="55" value="" style="endArrow=none;html=1;fontColor=#000000;strokeColor=#000000;rounded=0;" edge="1" parent="1">
                    <mxGeometry width="50" height="50" relative="1" as="geometry">
                        <mxPoint x="200" y="180" as="sourcePoint"/>
                        <mxPoint x="200" y="110" as="targetPoint"/>
                    </mxGeometry>
                </mxCell>
                <mxCell id="56" value="&lt;font color=&quot;#ffffff&quot;&gt;TIPO USUARIO&lt;/font&gt;" style="rounded=0;whiteSpace=wrap;html=1;fontColor=#000000;" vertex="1" parent="1">
                    <mxGeometry x="140" y="50" width="120" height="60" as="geometry"/>
                </mxCell>
                <mxCell id="57" value="" style="endArrow=none;html=1;fontColor=#000000;strokeColor=#000000;rounded=0;" edge="1" parent="1">
                    <mxGeometry width="50" height="50" relative="1" as="geometry">
                        <mxPoint x="190" y="180" as="sourcePoint"/>
                        <mxPoint x="510" y="180" as="targetPoint"/>
                    </mxGeometry>
                </mxCell>
                <mxCell id="58" value="" style="endArrow=none;html=1;fontColor=#000000;strokeColor=#000000;rounded=0;" edge="1" parent="1">
                    <mxGeometry width="50" height="50" relative="1" as="geometry">
                        <mxPoint x="360" y="180" as="sourcePoint"/>
                        <mxPoint x="360" y="110" as="targetPoint"/>
                    </mxGeometry>
                </mxCell>
                <mxCell id="59" value="&lt;font color=&quot;#ffffff&quot;&gt;FECHA ALTA&lt;/font&gt;" style="rounded=0;whiteSpace=wrap;html=1;fontColor=#000000;" vertex="1" parent="1">
                    <mxGeometry x="300" y="50" width="120" height="60" as="geometry"/>
                </mxCell>
                <mxCell id="60" value="" style="endArrow=none;html=1;fontColor=#000000;strokeColor=#000000;rounded=0;" edge="1" parent="1">
                    <mxGeometry width="50" height="50" relative="1" as="geometry">
                        <mxPoint x="510" y="180" as="sourcePoint"/>
                        <mxPoint x="510" y="110" as="targetPoint"/>
                    </mxGeometry>
                </mxCell>
                <mxCell id="61" value="&lt;font color=&quot;#ffffff&quot;&gt;FECHA ACTUALIZACION&lt;/font&gt;" style="rounded=0;whiteSpace=wrap;html=1;fontColor=#000000;" vertex="1" parent="1">
                    <mxGeometry x="450" y="50" width="120" height="60" as="geometry"/>
                </mxCell>
                <mxCell id="64" value="" style="endArrow=none;html=1;fontColor=#FFFFFF;strokeColor=#000000;rounded=0;" edge="1" parent="1">
                    <mxGeometry width="50" height="50" relative="1" as="geometry">
                        <mxPoint x="160" y="359" as="sourcePoint"/>
                        <mxPoint x="470" y="359.38" as="targetPoint"/>
                    </mxGeometry>
                </mxCell>
                <mxCell id="65" value="" style="endArrow=none;html=1;fontColor=#FFFFFF;strokeColor=#000000;rounded=0;" edge="1" parent="1">
                    <mxGeometry width="50" height="50" relative="1" as="geometry">
                        <mxPoint x="160" y="360" as="sourcePoint"/>
                        <mxPoint x="160" y="300" as="targetPoint"/>
                    </mxGeometry>
                </mxCell>
                <mxCell id="66" value="ID" style="rounded=0;whiteSpace=wrap;html=1;fontColor=#FFFFFF;" vertex="1" parent="1">
                    <mxGeometry x="93" y="240" width="120" height="60" as="geometry"/>
                </mxCell>
                <mxCell id="67" value="" style="endArrow=none;html=1;fontColor=#FFFFFF;strokeColor=#000000;rounded=0;" edge="1" parent="1">
                    <mxGeometry width="50" height="50" relative="1" as="geometry">
                        <mxPoint x="287" y="360" as="sourcePoint"/>
                        <mxPoint x="287" y="300" as="targetPoint"/>
                    </mxGeometry>
                </mxCell>
                <mxCell id="68" value="USUARIO_ID" style="rounded=0;whiteSpace=wrap;html=1;fontColor=#FFFFFF;" vertex="1" parent="1">
                    <mxGeometry x="220" y="240" width="120" height="60" as="geometry"/>
                </mxCell>
                <mxCell id="69" value="" style="endArrow=none;html=1;fontColor=#FFFFFF;strokeColor=#000000;rounded=0;" edge="1" parent="1">
                    <mxGeometry width="50" height="50" relative="1" as="geometry">
                        <mxPoint x="421" y="360" as="sourcePoint"/>
                        <mxPoint x="421" y="300" as="targetPoint"/>
                    </mxGeometry>
                </mxCell>
                <mxCell id="70" value="TIPO_ID" style="rounded=0;whiteSpace=wrap;html=1;fontColor=#FFFFFF;" vertex="1" parent="1">
                    <mxGeometry x="354" y="240" width="120" height="60" as="geometry"/>
                </mxCell>
                <mxCell id="71" value="" style="endArrow=none;html=1;fontColor=#FFFFFF;strokeColor=#000000;rounded=0;" edge="1" parent="1">
                    <mxGeometry width="50" height="50" relative="1" as="geometry">
                        <mxPoint x="460" y="359.37" as="sourcePoint"/>
                        <mxPoint x="840" y="359" as="targetPoint"/>
                    </mxGeometry>
                </mxCell>
                <mxCell id="74" value="" style="endArrow=none;html=1;fontColor=#FFFFFF;strokeColor=#000000;rounded=0;" edge="1" parent="1">
                    <mxGeometry width="50" height="50" relative="1" as="geometry">
                        <mxPoint x="557" y="359.9999999999999" as="sourcePoint"/>
                        <mxPoint x="557" y="300" as="targetPoint"/>
                    </mxGeometry>
                </mxCell>
                <mxCell id="75" value="CONTENIDO" style="rounded=0;whiteSpace=wrap;html=1;fontColor=#FFFFFF;" vertex="1" parent="1">
                    <mxGeometry x="490" y="240" width="120" height="60" as="geometry"/>
                </mxCell>
                <mxCell id="76" value="" style="endArrow=none;html=1;fontColor=#FFFFFF;strokeColor=#000000;rounded=0;" edge="1" parent="1">
                    <mxGeometry width="50" height="50" relative="1" as="geometry">
                        <mxPoint x="697" y="359.9999999999999" as="sourcePoint"/>
                        <mxPoint x="697" y="300" as="targetPoint"/>
                    </mxGeometry>
                </mxCell>
                <mxCell id="77" value="FECHA ALTA" style="rounded=0;whiteSpace=wrap;html=1;fontColor=#FFFFFF;" vertex="1" parent="1">
                    <mxGeometry x="630" y="240" width="120" height="60" as="geometry"/>
                </mxCell>
                <mxCell id="78" value="" style="endArrow=none;html=1;fontColor=#FFFFFF;strokeColor=#000000;rounded=0;" edge="1" parent="1">
                    <mxGeometry width="50" height="50" relative="1" as="geometry">
                        <mxPoint x="837" y="359.9999999999999" as="sourcePoint"/>
                        <mxPoint x="837" y="300" as="targetPoint"/>
                    </mxGeometry>
                </mxCell>
                <mxCell id="79" value="FECHA ACTUALIZACION" style="rounded=0;whiteSpace=wrap;html=1;fontColor=#FFFFFF;" vertex="1" parent="1">
                    <mxGeometry x="770" y="240" width="120" height="60" as="geometry"/>
                </mxCell>
                <mxCell id="82" value="" style="endArrow=none;html=1;fontColor=#FFFFFF;strokeColor=#000000;rounded=0;" edge="1" parent="1">
                    <mxGeometry width="50" height="50" relative="1" as="geometry">
                        <mxPoint x="-760" y="1050" as="sourcePoint"/>
                        <mxPoint x="50" y="1050" as="targetPoint"/>
                    </mxGeometry>
                </mxCell>
                <mxCell id="84" value="" style="endArrow=none;html=1;fontColor=#FFFFFF;strokeColor=#000000;rounded=0;" edge="1" parent="1">
                    <mxGeometry width="50" height="50" relative="1" as="geometry">
                        <mxPoint x="-760" y="1090" as="sourcePoint"/>
                        <mxPoint x="-760" y="1050" as="targetPoint"/>
                    </mxGeometry>
                </mxCell>
                <mxCell id="85" value="ID" style="rounded=0;whiteSpace=wrap;html=1;fontColor=#FFFFFF;" vertex="1" parent="1">
                    <mxGeometry x="-810" y="1090" width="120" height="60" as="geometry"/>
                </mxCell>
                <mxCell id="86" value="" style="endArrow=none;html=1;fontColor=#FFFFFF;strokeColor=#000000;rounded=0;" edge="1" parent="1">
                    <mxGeometry width="50" height="50" relative="1" as="geometry">
                        <mxPoint x="-630" y="1090" as="sourcePoint"/>
                        <mxPoint x="-630" y="1050" as="targetPoint"/>
                    </mxGeometry>
                </mxCell>
                <mxCell id="87" value="USUARIO_ID" style="rounded=0;whiteSpace=wrap;html=1;fontColor=#FFFFFF;" vertex="1" parent="1">
                    <mxGeometry x="-680" y="1090" width="120" height="60" as="geometry"/>
                </mxCell>
                <mxCell id="88" value="" style="endArrow=none;html=1;fontColor=#FFFFFF;strokeColor=#000000;rounded=0;" edge="1" parent="1">
                    <mxGeometry width="50" height="50" relative="1" as="geometry">
                        <mxPoint x="-497" y="1090" as="sourcePoint"/>
                        <mxPoint x="-497" y="1050" as="targetPoint"/>
                    </mxGeometry>
                </mxCell>
                <mxCell id="89" value="PUBLICACION_ID" style="rounded=0;whiteSpace=wrap;html=1;fontColor=#FFFFFF;" vertex="1" parent="1">
                    <mxGeometry x="-547" y="1090" width="120" height="60" as="geometry"/>
                </mxCell>
                <mxCell id="90" value="" style="endArrow=none;html=1;fontColor=#FFFFFF;strokeColor=#000000;rounded=0;" edge="1" parent="1">
                    <mxGeometry width="50" height="50" relative="1" as="geometry">
                        <mxPoint x="-350" y="1090" as="sourcePoint"/>
                        <mxPoint x="-350" y="1050" as="targetPoint"/>
                    </mxGeometry>
                </mxCell>
                <mxCell id="91" value="TIPO_ID" style="rounded=0;whiteSpace=wrap;html=1;fontColor=#FFFFFF;" vertex="1" parent="1">
                    <mxGeometry x="-400" y="1090" width="120" height="60" as="geometry"/>
                </mxCell>
                <mxCell id="92" value="" style="endArrow=none;html=1;fontColor=#FFFFFF;strokeColor=#000000;rounded=0;" edge="1" parent="1">
                    <mxGeometry width="50" height="50" relative="1" as="geometry">
                        <mxPoint x="-217" y="1090" as="sourcePoint"/>
                        <mxPoint x="-217" y="1050" as="targetPoint"/>
                    </mxGeometry>
                </mxCell>
                <mxCell id="93" value="CONTENIDO" style="rounded=0;whiteSpace=wrap;html=1;fontColor=#FFFFFF;" vertex="1" parent="1">
                    <mxGeometry x="-267" y="1090" width="120" height="60" as="geometry"/>
                </mxCell>
                <mxCell id="94" value="" style="endArrow=none;html=1;fontColor=#FFFFFF;strokeColor=#000000;rounded=0;" edge="1" parent="1">
                    <mxGeometry width="50" height="50" relative="1" as="geometry">
                        <mxPoint x="-90" y="1090" as="sourcePoint"/>
                        <mxPoint x="-90" y="1050" as="targetPoint"/>
                    </mxGeometry>
                </mxCell>
                <mxCell id="95" value="FECHA ALTA" style="rounded=0;whiteSpace=wrap;html=1;fontColor=#FFFFFF;" vertex="1" parent="1">
                    <mxGeometry x="-140" y="1090" width="120" height="60" as="geometry"/>
                </mxCell>
                <mxCell id="96" value="" style="endArrow=none;html=1;fontColor=#FFFFFF;strokeColor=#000000;rounded=0;" edge="1" parent="1">
                    <mxGeometry width="50" height="50" relative="1" as="geometry">
                        <mxPoint x="50" y="1090" as="sourcePoint"/>
                        <mxPoint x="50" y="1050" as="targetPoint"/>
                    </mxGeometry>
                </mxCell>
                <mxCell id="97" value="FECHA ACTUALIZACION" style="rounded=0;whiteSpace=wrap;html=1;fontColor=#FFFFFF;" vertex="1" parent="1">
                    <mxGeometry y="1090" width="120" height="60" as="geometry"/>
                </mxCell>
                <mxCell id="116" value="" style="endArrow=none;html=1;fontColor=#FFFFFF;strokeColor=#000000;rounded=0;" edge="1" parent="1">
                    <mxGeometry width="50" height="50" relative="1" as="geometry">
                        <mxPoint x="190" y="1050" as="sourcePoint"/>
                        <mxPoint x="400" y="1050" as="targetPoint"/>
                    </mxGeometry>
                </mxCell>
                <mxCell id="118" value="" style="endArrow=none;html=1;fontColor=#FFFFFF;strokeColor=#000000;rounded=0;" edge="1" parent="1">
                    <mxGeometry width="50" height="50" relative="1" as="geometry">
                        <mxPoint x="190" y="1090" as="sourcePoint"/>
                        <mxPoint x="190" y="1050" as="targetPoint"/>
                    </mxGeometry>
                </mxCell>
                <mxCell id="120" value="ID" style="rounded=0;whiteSpace=wrap;html=1;fontColor=#FFFFFF;" vertex="1" parent="1">
                    <mxGeometry x="130" y="1090" width="120" height="60" as="geometry"/>
                </mxCell>
                <mxCell id="125" value="" style="endArrow=none;html=1;fontColor=#FFFFFF;strokeColor=#000000;rounded=0;" edge="1" parent="1">
                    <mxGeometry width="50" height="50" relative="1" as="geometry">
                        <mxPoint x="190" y="1050" as="sourcePoint"/>
                        <mxPoint x="580" y="1050" as="targetPoint"/>
                    </mxGeometry>
                </mxCell>
                <mxCell id="126" value="" style="endArrow=none;html=1;fontColor=#FFFFFF;strokeColor=#000000;rounded=0;" edge="1" parent="1">
                    <mxGeometry width="50" height="50" relative="1" as="geometry">
                        <mxPoint x="320" y="1090" as="sourcePoint"/>
                        <mxPoint x="320" y="1050" as="targetPoint"/>
                    </mxGeometry>
                </mxCell>
                <mxCell id="127" value="USUARIO_ID" style="rounded=0;whiteSpace=wrap;html=1;fontColor=#FFFFFF;" vertex="1" parent="1">
                    <mxGeometry x="260" y="1090" width="120" height="60" as="geometry"/>
                </mxCell>
                <mxCell id="128" value="" style="endArrow=none;html=1;fontColor=#FFFFFF;strokeColor=#000000;rounded=0;" edge="1" parent="1">
                    <mxGeometry width="50" height="50" relative="1" as="geometry">
                        <mxPoint x="450" y="1090" as="sourcePoint"/>
                        <mxPoint x="450" y="1050" as="targetPoint"/>
                    </mxGeometry>
                </mxCell>
                <mxCell id="129" value="PUBLICACION_ID" style="rounded=0;whiteSpace=wrap;html=1;fontColor=#FFFFFF;" vertex="1" parent="1">
                    <mxGeometry x="390" y="1090" width="120" height="60" as="geometry"/>
                </mxCell>
                <mxCell id="130" value="" style="endArrow=none;html=1;fontColor=#FFFFFF;strokeColor=#000000;rounded=0;" edge="1" parent="1">
                    <mxGeometry width="50" height="50" relative="1" as="geometry">
                        <mxPoint x="580" y="1090" as="sourcePoint"/>
                        <mxPoint x="580" y="1050" as="targetPoint"/>
                    </mxGeometry>
                </mxCell>
                <mxCell id="131" value="COMENTARIO_ID" style="rounded=0;whiteSpace=wrap;html=1;fontColor=#FFFFFF;" vertex="1" parent="1">
                    <mxGeometry x="520" y="1090" width="120" height="60" as="geometry"/>
                </mxCell>
                <mxCell id="135" value="" style="endArrow=none;html=1;fontColor=#FFFFFF;strokeColor=#000000;rounded=0;" edge="1" parent="1">
                    <mxGeometry width="50" height="50" relative="1" as="geometry">
                        <mxPoint x="890" y="1220" as="sourcePoint"/>
                        <mxPoint x="890" y="800" as="targetPoint"/>
                    </mxGeometry>
                </mxCell>
                <mxCell id="136" value="" style="endArrow=none;html=1;fontColor=#FFFFFF;strokeColor=#000000;rounded=0;" edge="1" parent="1" target="137">
                    <mxGeometry width="50" height="50" relative="1" as="geometry">
                        <mxPoint x="890" y="800" as="sourcePoint"/>
                        <mxPoint x="960" y="800" as="targetPoint"/>
                    </mxGeometry>
                </mxCell>
                <mxCell id="137" value="ID" style="rounded=0;whiteSpace=wrap;html=1;fontColor=#FFFFFF;" vertex="1" parent="1">
                    <mxGeometry x="930" y="770" width="120" height="60" as="geometry"/>
                </mxCell>
                <mxCell id="138" value="" style="endArrow=none;html=1;fontColor=#FFFFFF;strokeColor=#000000;rounded=0;" edge="1" parent="1" target="139">
                    <mxGeometry width="50" height="50" relative="1" as="geometry">
                        <mxPoint x="890" y="870" as="sourcePoint"/>
                        <mxPoint x="960" y="870" as="targetPoint"/>
                    </mxGeometry>
                </mxCell>
                <mxCell id="139" value="USUARIOEMISOR_ID" style="rounded=0;whiteSpace=wrap;html=1;fontColor=#FFFFFF;" vertex="1" parent="1">
                    <mxGeometry x="930" y="840" width="120" height="60" as="geometry"/>
                </mxCell>
                <mxCell id="140" value="" style="endArrow=none;html=1;fontColor=#FFFFFF;strokeColor=#000000;rounded=0;" edge="1" parent="1" target="141">
                    <mxGeometry width="50" height="50" relative="1" as="geometry">
                        <mxPoint x="890" y="940" as="sourcePoint"/>
                        <mxPoint x="960" y="940" as="targetPoint"/>
                    </mxGeometry>
                </mxCell>
                <mxCell id="141" value="USUARIO&lt;br&gt;RECEPTOR_ID" style="rounded=0;whiteSpace=wrap;html=1;fontColor=#FFFFFF;" vertex="1" parent="1">
                    <mxGeometry x="930" y="910" width="120" height="60" as="geometry"/>
                </mxCell>
                <mxCell id="147" value="" style="endArrow=none;html=1;fontColor=#FFFFFF;strokeColor=#000000;rounded=0;" edge="1" parent="1" target="148">
                    <mxGeometry width="50" height="50" relative="1" as="geometry">
                        <mxPoint x="890" y="1080" as="sourcePoint"/>
                        <mxPoint x="960" y="1080" as="targetPoint"/>
                    </mxGeometry>
                </mxCell>
                <mxCell id="148" value="CONTENIDO" style="rounded=0;whiteSpace=wrap;html=1;fontColor=#FFFFFF;" vertex="1" parent="1">
                    <mxGeometry x="930" y="1050" width="120" height="60" as="geometry"/>
                </mxCell>
                <mxCell id="149" value="" style="endArrow=none;html=1;fontColor=#FFFFFF;strokeColor=#000000;rounded=0;" edge="1" parent="1" target="150">
                    <mxGeometry width="50" height="50" relative="1" as="geometry">
                        <mxPoint x="890" y="1150" as="sourcePoint"/>
                        <mxPoint x="960" y="1150" as="targetPoint"/>
                    </mxGeometry>
                </mxCell>
                <mxCell id="150" value="FECHA ALTA" style="rounded=0;whiteSpace=wrap;html=1;fontColor=#FFFFFF;" vertex="1" parent="1">
                    <mxGeometry x="930" y="1120" width="120" height="60" as="geometry"/>
                </mxCell>
                <mxCell id="151" value="" style="endArrow=none;html=1;fontColor=#FFFFFF;strokeColor=#000000;rounded=0;" edge="1" parent="1" target="152">
                    <mxGeometry width="50" height="50" relative="1" as="geometry">
                        <mxPoint x="890" y="1220" as="sourcePoint"/>
                        <mxPoint x="960" y="1220" as="targetPoint"/>
                    </mxGeometry>
                </mxCell>
                <mxCell id="152" value="FECHA ACTUALIZACION" style="rounded=0;whiteSpace=wrap;html=1;fontColor=#FFFFFF;" vertex="1" parent="1">
                    <mxGeometry x="930" y="1190" width="120" height="60" as="geometry"/>
                </mxCell>
                <mxCell id="155" value="" style="endArrow=none;html=1;fontColor=#FFFFFF;strokeColor=#000000;rounded=0;" edge="1" parent="1" target="156">
                    <mxGeometry width="50" height="50" relative="1" as="geometry">
                        <mxPoint x="890" y="1010" as="sourcePoint"/>
                        <mxPoint x="960" y="1010" as="targetPoint"/>
                    </mxGeometry>
                </mxCell>
                <mxCell id="156" value="TIPO_ID" style="rounded=0;whiteSpace=wrap;html=1;fontColor=#FFFFFF;" vertex="1" parent="1">
                    <mxGeometry x="930" y="980" width="120" height="60" as="geometry"/>
                </mxCell>
            </root>
        </mxGraphModel>
    </diagram>
</mxfile>